<?xml version="1.0" standalone="no"?>
<!DOCTYPE svg PUBLIC "-//W3C//DTD SVG 20010904//EN"
 "http://www.w3.org/TR/2001/REC-SVG-20010904/DTD/svg10.dtd">
<svg version="1.0" xmlns="http://www.w3.org/2000/svg"
 width="737.000000pt" height="1080.000000pt" viewBox="0 0 737.000000 1080.000000"
 preserveAspectRatio="xMidYMid meet">

<g transform="translate(0.000000,1080.000000) scale(0.100000,-0.100000)"
fill="#000000" stroke="none">
<path d="M2124 10746 c-66 -22 -84 -35 -163 -110 -90 -88 -117 -126 -187 -268
-31 -62 -63 -126 -71 -143 -75 -142 -139 -282 -164 -357 -17 -50 -37 -105 -44
-122 -7 -17 -23 -61 -34 -97 -19 -59 -20 -70 -8 -105 24 -68 84 -82 142 -31
28 24 81 168 116 317 19 82 58 162 146 297 18 28 56 100 84 160 90 192 103
214 161 276 l56 62 67 -35 c88 -46 271 -196 365 -299 41 -45 130 -139 198
-208 68 -70 130 -140 139 -157 9 -17 27 -42 41 -55 26 -24 27 -24 186 -16 123
5 187 13 276 35 63 15 152 36 197 45 l83 18 77 -26 c43 -14 119 -33 168 -42
50 -9 110 -23 135 -30 25 -8 92 -22 150 -30 58 -9 118 -20 134 -25 16 -6 38
-10 49 -10 32 0 254 -94 342 -144 103 -60 149 -62 220 -12 26 19 71 40 99 47
90 21 155 56 224 122 131 124 248 202 457 303 219 107 241 111 297 57 64 -61
189 -339 207 -463 7 -41 20 -122 31 -180 69 -374 80 -442 80 -480 0 -61 19
-126 43 -148 12 -11 46 -25 76 -32 52 -12 54 -12 80 14 23 24 26 33 24 94 -1
37 -8 108 -16 157 -8 50 -15 107 -15 128 0 21 -7 68 -15 105 -9 37 -21 114
-28 172 -18 158 -34 229 -74 316 -20 43 -45 113 -56 154 -11 41 -28 84 -37 95
-118 139 -171 190 -227 216 -33 16 -70 29 -81 29 -12 0 -71 -11 -132 -25 -61
-14 -122 -25 -135 -25 -23 0 -173 -67 -374 -167 -96 -47 -185 -115 -298 -224
-62 -60 -123 -96 -187 -112 -35 -9 -81 10 -152 60 -89 64 -229 112 -414 142
-105 17 -178 35 -297 71 -62 19 -191 30 -341 30 -158 0 -234 -12 -409 -66 -27
-8 -79 -18 -115 -20 l-65 -5 -140 153 c-234 257 -450 459 -540 505 -22 11 -71
37 -110 58 -80 42 -154 53 -221 31z"/>
<path d="M3819 9556 c-2 -2 -20 -6 -40 -9 -52 -7 -72 -20 -127 -89 -61 -77
-168 -180 -242 -235 -91 -67 -327 -171 -440 -194 -30 -6 -73 -15 -95 -20 -83
-19 -176 -28 -370 -35 -110 -3 -207 -7 -215 -6 -38 0 -248 31 -270 40 -14 5
-68 12 -120 16 -177 13 -434 67 -467 98 -32 30 -29 44 15 61 38 15 74 49 85
78 8 25 -18 56 -59 69 -40 14 -136 0 -186 -26 -16 -8 -54 -23 -87 -33 -32 -10
-78 -32 -102 -48 -77 -53 -362 -337 -424 -423 -33 -45 -80 -108 -105 -139
-100 -125 -243 -355 -275 -441 -10 -25 -35 -83 -57 -130 -61 -127 -82 -188
-129 -375 l-43 -170 0 -410 c-1 -397 0 -412 22 -485 12 -41 22 -94 22 -117 0
-23 9 -66 20 -95 37 -94 274 -562 307 -606 62 -82 57 -115 -27 -172 -162 -110
-127 -286 101 -506 66 -63 158 -134 173 -134 4 0 52 -18 107 -40 56 -22 112
-40 125 -40 13 0 38 13 55 28 57 51 23 89 -121 137 -108 35 -121 42 -201 107
-72 58 -95 83 -158 172 -56 81 -55 139 3 188 44 36 120 21 301 -61 62 -28 104
-41 135 -41 48 0 90 21 90 46 0 19 -99 111 -153 143 -162 95 -263 221 -405
505 -30 61 -66 126 -79 144 -38 51 -89 172 -97 227 -3 28 -13 79 -21 115 -53
244 -53 240 -48 530 3 250 6 283 28 365 13 50 27 113 31 140 3 28 15 73 26
100 11 28 32 86 47 130 79 225 265 546 402 690 26 28 64 77 85 110 68 108 155
213 202 244 26 16 63 46 81 65 19 20 45 36 57 36 12 0 44 -16 70 -35 108 -77
221 -114 469 -154 105 -18 210 -36 235 -41 25 -6 87 -15 138 -20 50 -6 134
-15 185 -20 194 -22 657 16 837 69 36 10 100 28 142 40 79 22 220 90 318 153
65 42 126 105 175 183 20 30 47 62 61 71 29 20 27 21 208 -129 115 -94 196
-149 321 -217 44 -24 112 -65 150 -90 198 -132 629 -327 745 -336 55 -5 178
-28 235 -44 17 -5 118 -12 225 -15 107 -3 215 -11 240 -16 63 -14 319 14 368
40 10 5 49 17 87 26 68 15 69 15 104 -8 48 -32 189 -160 238 -217 62 -70 90
-121 149 -268 31 -76 69 -167 85 -203 16 -37 35 -91 43 -120 8 -30 29 -106 46
-169 57 -209 58 -218 62 -530 2 -256 0 -305 -15 -375 -10 -44 -22 -116 -27
-160 -9 -84 -53 -249 -127 -478 -48 -147 -229 -527 -306 -642 -23 -33 -98
-118 -169 -189 -72 -73 -128 -138 -128 -148 0 -23 45 -66 77 -74 31 -8 77 -2
212 30 146 33 211 29 244 -18 31 -43 27 -89 -15 -176 -39 -80 -55 -98 -133
-151 -27 -18 -68 -50 -90 -70 -22 -20 -62 -49 -90 -64 -133 -73 -144 -103 -55
-147 30 -15 63 -28 72 -28 35 0 107 43 188 116 47 41 101 84 120 94 47 25 113
95 140 148 12 24 36 65 54 90 41 58 48 93 30 151 -8 25 -14 56 -14 68 0 51
-135 141 -233 156 -43 7 -67 22 -67 44 0 8 31 61 70 117 38 56 77 120 85 142
26 65 106 216 140 264 36 52 49 84 64 158 6 29 29 95 51 147 22 52 40 100 40
108 0 8 16 63 35 123 59 180 77 360 76 759 -1 296 -3 337 -20 395 -25 82 -71
291 -71 318 0 12 -16 56 -36 99 -19 43 -47 114 -61 158 -66 203 -126 288 -350
488 -135 120 -161 139 -257 177 -95 37 -159 39 -348 8 -132 -21 -147 -21 -375
-10 -299 15 -571 60 -723 120 -41 17 -106 42 -145 57 -55 22 -224 116 -385
215 -8 5 -55 33 -105 61 -104 59 -168 103 -245 169 -30 25 -78 61 -105 78 -28
17 -75 62 -105 99 -92 113 -104 123 -148 123 -21 0 -41 -2 -43 -4z"/>
<path d="M2605 8609 c-79 -33 -110 -73 -79 -104 19 -18 77 -29 112 -21 15 4
56 13 92 20 86 18 116 31 130 57 10 18 9 25 -9 43 -32 31 -175 34 -246 5z"/>
<path d="M4585 8401 c-22 -25 -16 -42 26 -73 33 -25 176 -58 204 -48 31 12 47
36 43 66 -5 41 -56 63 -164 70 -83 6 -90 5 -109 -15z"/>
<path d="M2433 7951 c-40 -10 -90 -30 -112 -44 -49 -33 -143 -144 -170 -203
-30 -63 -39 -196 -17 -249 27 -65 95 -158 141 -193 89 -68 276 -125 411 -126
84 -1 93 1 126 26 20 15 51 44 69 64 19 21 63 69 99 108 l66 71 13 105 c13
102 12 107 -11 170 -29 79 -89 172 -132 204 -57 44 -155 75 -226 74 -36 -1
-92 2 -125 5 -43 5 -80 2 -132 -12z m276 -135 c45 -23 111 -86 111 -106 0 -20
-102 -118 -150 -144 -44 -24 -60 -28 -106 -24 -34 3 -65 13 -82 25 -24 18 -27
27 -26 74 1 65 31 128 76 162 57 43 109 47 177 13z m131 -355 c0 -23 -104
-120 -164 -151 l-42 -23 -95 27 c-93 26 -119 43 -150 99 -16 29 16 32 73 7 77
-33 201 -39 253 -12 22 11 51 32 64 46 29 31 61 35 61 7z"/>
<path d="M4691 7749 c-115 -15 -140 -22 -174 -46 -88 -62 -137 -180 -137 -330
0 -161 72 -293 192 -352 75 -36 181 -60 281 -63 135 -3 245 71 321 217 30 58
36 79 36 131 0 35 5 85 12 113 11 48 10 53 -21 114 -40 78 -139 184 -202 215
-56 27 -114 27 -308 1z m162 -113 c47 -20 126 -104 139 -148 14 -49 -4 -77
-75 -118 -82 -47 -190 -40 -243 17 -41 43 -53 81 -44 136 9 59 29 81 100 106
67 24 82 25 123 7z m2 -430 c22 0 55 4 73 8 39 10 44 -9 10 -41 -76 -69 -182
-71 -250 -5 -49 46 -39 56 50 46 42 -5 95 -8 117 -8z"/>
<path d="M1259 7322 c-32 -21 -64 -53 -106 -107 -40 -51 -133 -248 -133 -280
0 -28 34 -55 69 -55 35 0 118 88 126 134 4 19 34 77 66 128 65 102 74 143 39
178 -24 24 -28 24 -61 2z"/>
<path d="M1469 7213 c-20 -22 -64 -95 -98 -164 -55 -110 -61 -127 -52 -152 14
-36 56 -53 85 -33 51 35 88 80 113 138 15 35 40 87 55 117 44 84 36 116 -34
127 -30 5 -38 1 -69 -33z"/>
<path d="M1711 7174 c-22 -28 -81 -208 -88 -269 -6 -52 13 -78 56 -78 18 0 38
6 46 14 15 15 115 272 115 296 0 7 -11 25 -25 38 -33 34 -77 33 -104 -1z"/>
<path d="M1967 7140 c-27 -22 -37 -57 -57 -205 -10 -76 -10 -81 11 -97 18 -16
24 -16 48 -3 31 15 91 80 91 96 0 6 14 42 31 81 36 83 31 110 -26 134 -46 19
-68 18 -98 -6z"/>
<path d="M5282 6884 c-23 -20 -53 -55 -67 -79 -33 -56 -95 -214 -95 -242 0
-23 32 -63 49 -63 15 0 157 156 200 221 50 75 56 130 16 173 -32 35 -52 33
-103 -10z"/>
<path d="M3621 6884 c-28 -23 -31 -31 -31 -83 0 -36 -6 -65 -16 -80 -48 -68
-162 -55 -239 28 -67 72 -175 74 -175 3 0 -50 41 -115 95 -149 80 -50 85 -57
85 -114 0 -47 23 -168 51 -274 17 -61 54 -126 91 -162 61 -58 195 -123 254
-123 44 0 155 42 188 70 60 53 132 265 143 425 4 57 7 62 53 105 79 74 77 144
-3 163 -53 13 -80 3 -125 -44 -47 -50 -70 -49 -133 8 -53 48 -69 81 -69 143 0
44 -5 56 -29 81 -39 39 -96 40 -140 3z m-84 -350 c7 -18 -6 -45 -25 -52 -14
-4 -35 35 -28 54 7 19 45 18 53 -2z m398 -30 c19 -19 15 -38 -9 -42 -22 -5
-46 16 -46 39 0 24 32 25 55 3z m-265 -173 c0 -79 58 -91 117 -25 20 22 39 34
50 32 55 -11 -30 -258 -90 -258 -33 0 -92 44 -111 84 -21 46 -50 172 -42 191
3 9 18 15 41 15 34 0 35 -1 35 -39z"/>
<path d="M5567 6843 c-52 -73 -119 -222 -112 -250 8 -33 67 -60 99 -45 28 12
77 92 126 206 l34 79 -32 28 c-47 42 -74 38 -115 -18z"/>
<path d="M5842 6840 c-30 -32 -58 -96 -92 -209 -25 -83 -29 -109 -21 -128 26
-56 112 0 162 105 12 26 34 65 50 87 41 59 42 88 3 134 -31 37 -74 41 -102 11z"/>
<path d="M6069 6813 c-26 -29 -58 -122 -73 -208 -17 -92 -6 -125 39 -125 66 0
199 212 181 286 -7 26 -44 49 -97 59 -27 5 -38 2 -50 -12z"/>
<path d="M3623 5810 c-48 -20 -12 -88 60 -114 62 -22 191 -29 230 -12 69 28
88 80 42 110 -28 18 -62 20 -100 6 -18 -7 -42 -5 -82 5 -64 17 -117 18 -150 5z"/>
<path d="M943 4822 c-7 -4 -20 -26 -29 -47 -15 -35 -17 -84 -18 -396 -1 -408
3 -388 -89 -409 -151 -34 -260 -104 -318 -204 -34 -60 -35 -76 -12 -152 28
-91 83 -144 218 -209 162 -79 184 -85 346 -100 l147 -14 83 -56 c46 -30 104
-71 129 -90 25 -20 68 -47 95 -60 70 -34 235 -124 330 -179 44 -26 98 -51 120
-57 22 -6 56 -19 76 -29 20 -11 56 -27 80 -35 146 -54 189 -67 237 -76 29 -5
86 -20 127 -34 41 -13 91 -27 112 -31 21 -4 47 -11 57 -16 10 -6 66 -14 123
-19 58 -4 126 -15 151 -23 26 -8 76 -17 112 -21 35 -3 72 -10 81 -15 22 -13
28 -48 17 -115 -13 -84 -29 -121 -93 -220 -73 -112 -94 -170 -95 -259 0 -76
36 -203 76 -267 95 -153 368 -220 515 -127 26 16 86 69 133 118 77 80 93 104
142 208 82 173 120 297 128 417 9 121 11 132 39 147 13 7 101 15 212 19 120 5
208 14 237 23 26 8 76 18 110 22 72 7 225 45 280 68 21 9 83 25 140 36 136 26
224 56 278 95 25 17 65 44 90 59 25 15 61 38 80 52 31 23 41 25 98 20 38 -3
78 -14 105 -29 50 -28 117 -49 252 -76 87 -18 115 -20 215 -12 63 5 128 14
143 20 16 6 39 11 52 11 37 0 116 29 152 56 47 36 76 82 84 133 3 25 12 74 19
108 l14 62 -38 73 c-50 95 -82 135 -161 199 -38 31 -65 60 -65 71 0 11 9 47
19 81 11 34 25 87 32 117 6 30 27 101 45 156 24 70 36 130 41 193 l6 90 -28
11 c-37 14 -75 -1 -115 -47 -24 -27 -30 -43 -30 -81 0 -88 -29 -217 -75 -337
-25 -66 -50 -124 -56 -130 -5 -5 -28 -16 -51 -25 -22 -8 -50 -27 -61 -42 -19
-26 -19 -28 -3 -53 11 -16 45 -39 84 -57 115 -50 133 -62 160 -102 15 -21 46
-60 70 -87 23 -27 42 -57 42 -67 0 -28 -45 -115 -74 -144 -45 -44 -97 -56
-263 -61 -144 -4 -154 -3 -210 20 -32 14 -92 38 -133 53 -41 15 -86 32 -100
38 -14 5 -67 16 -117 23 -86 12 -94 11 -112 -5 -11 -10 -23 -27 -27 -38 -3
-10 -33 -32 -68 -48 -34 -16 -82 -43 -108 -60 -25 -17 -75 -42 -110 -57 -114
-46 -632 -174 -781 -193 -113 -14 -518 -5 -657 15 -58 8 -170 22 -250 30 -164
19 -629 94 -801 130 -107 23 -586 222 -708 295 -45 27 -138 79 -205 115 -79
43 -152 92 -207 139 -46 40 -95 79 -109 86 -17 9 -74 14 -185 16 -186 3 -230
10 -344 58 -95 40 -115 55 -143 110 -39 76 -6 150 96 221 52 36 57 37 177 45
140 9 151 12 168 44 11 19 8 31 -13 79 -28 60 -35 143 -16 192 6 15 12 107 15
204 2 114 10 197 20 236 24 93 20 151 -11 180 -27 25 -94 34 -121 17z m2542
-2347 c223 -29 259 -36 267 -48 10 -15 -1 -140 -17 -192 -7 -22 -27 -78 -45
-125 -17 -47 -35 -98 -40 -113 -21 -68 -104 -195 -169 -261 -60 -59 -76 -70
-125 -81 -48 -11 -63 -11 -99 1 -73 25 -135 96 -172 198 l-23 65 19 63 c20 68
71 160 119 214 47 54 57 82 64 182 3 52 8 98 12 103 8 13 83 11 209 -6z"/>
<path d="M4416 1309 c-31 -24 -32 -32 -7 -95 34 -86 60 -191 86 -349 32 -191
46 -248 66 -277 59 -82 118 37 86 173 -9 35 -18 80 -21 99 -2 19 -12 64 -21
100 -9 36 -20 88 -25 115 -13 80 -57 206 -81 232 -28 28 -48 29 -83 2z"/>
<path d="M3889 1259 c-17 -17 -20 -29 -15 -58 4 -20 11 -69 16 -109 5 -40 12
-77 15 -82 3 -4 12 -59 21 -121 17 -120 23 -431 14 -694 -5 -139 -5 -139 19
-151 57 -29 87 25 101 177 13 150 13 549 -1 641 -34 233 -67 375 -96 403 -20
21 -49 19 -74 -6z"/>
<path d="M3271 1164 c-20 -14 -22 -23 -18 -68 2 -28 10 -69 17 -91 6 -22 16
-65 21 -95 4 -30 14 -71 21 -90 8 -23 12 -119 13 -289 0 -229 2 -255 18 -265
22 -14 46 0 72 45 18 30 19 52 19 259 0 231 -12 327 -61 518 -22 85 -54 109
-102 76z"/>
</g>
</svg>
